<svg width="19" height="22" viewBox="0 0 19 22" fill="none" xmlns="http://www.w3.org/2000/svg">
<g clip-path="url(#clip0)">
<path d="M16.5714 2H2.42857C1.36384 2 0.5 2.86384 0.5 3.92857V18.0714C0.5 19.1362 1.36384 20 2.42857 20H16.5714C17.6362 20 18.5 19.1362 18.5 18.0714V3.92857C18.5 2.86384 17.6362 2 16.5714 2ZM11.6415 17.4165C11.304 17.4768 11.1795 17.2679 11.1795 17.0951C11.1795 16.8781 11.1875 15.7692 11.1875 14.8732C11.1875 14.2464 10.9786 13.8487 10.7335 13.6397C12.2201 13.475 13.7871 13.2701 13.7871 10.7027C13.7871 9.97143 13.5259 9.6058 13.1 9.13571C13.1683 8.96295 13.3973 8.25179 13.0317 7.32768C12.4732 7.15491 11.1955 8.04687 11.1955 8.04687C10.6652 7.89821 10.0906 7.82187 9.52411 7.82187C8.95759 7.82187 8.38304 7.89821 7.85268 8.04687C7.85268 8.04687 6.575 7.15491 6.01652 7.32768C5.65089 8.24777 5.87589 8.95893 5.94821 9.13571C5.52232 9.6058 5.32143 9.97143 5.32143 10.7027C5.32143 13.258 6.82009 13.475 8.3067 13.6397C8.11384 13.8125 7.94107 14.1098 7.8808 14.5357C7.49911 14.7085 6.52277 15.0058 5.94018 13.9772C5.57455 13.3424 4.91563 13.2902 4.91563 13.2902C4.26473 13.2821 4.87143 13.7 4.87143 13.7C5.30536 13.9009 5.61071 14.6723 5.61071 14.6723C6.00045 15.8656 7.86473 15.4638 7.86473 15.4638C7.86473 16.0223 7.87277 16.9304 7.87277 17.0951C7.87277 17.2679 7.75223 17.4768 7.41071 17.4165C4.75893 16.5286 2.90268 14.0054 2.90268 11.0562C2.90268 7.36786 5.72321 4.56741 9.41161 4.56741C13.1 4.56741 16.0893 7.36786 16.0893 11.0562C16.0933 14.0054 14.2933 16.5326 11.6415 17.4165ZM7.7 14.9616C7.62366 14.9777 7.55134 14.9455 7.5433 14.8933C7.53527 14.833 7.5875 14.7808 7.66384 14.7647C7.74018 14.7567 7.8125 14.7888 7.82054 14.8411C7.83259 14.8933 7.78036 14.9455 7.7 14.9616ZM7.3183 14.9254C7.3183 14.9777 7.25804 15.0219 7.17768 15.0219C7.08929 15.0299 7.02902 14.9857 7.02902 14.9254C7.02902 14.8732 7.08929 14.829 7.16964 14.829C7.24598 14.821 7.3183 14.8652 7.3183 14.9254ZM6.76786 14.8813C6.75179 14.9335 6.67143 14.9576 6.60312 14.9335C6.52679 14.9174 6.47455 14.8571 6.49063 14.8049C6.5067 14.7527 6.58705 14.7286 6.65536 14.7446C6.73571 14.7688 6.78795 14.829 6.76786 14.8813ZM6.27366 14.6643C6.2375 14.7085 6.16116 14.7004 6.10089 14.6402C6.04062 14.5879 6.02455 14.5116 6.06473 14.4754C6.10089 14.4312 6.17723 14.4393 6.2375 14.4996C6.28973 14.5518 6.30982 14.6321 6.27366 14.6643ZM5.90804 14.2987C5.87188 14.3228 5.80357 14.2987 5.75937 14.2384C5.71518 14.1781 5.71518 14.1098 5.75937 14.0817C5.80357 14.0455 5.87188 14.0737 5.90804 14.1339C5.95223 14.1942 5.95223 14.2665 5.90804 14.2987V14.2987ZM5.64688 13.9089C5.61071 13.9451 5.55045 13.925 5.50625 13.8848C5.46205 13.8326 5.45402 13.7723 5.49018 13.7442C5.52634 13.708 5.58661 13.7281 5.6308 13.7683C5.675 13.8205 5.68304 13.8808 5.64688 13.9089ZM5.37768 13.6116C5.36161 13.6478 5.30937 13.6558 5.26518 13.6277C5.21295 13.6036 5.18884 13.5594 5.20491 13.5232C5.22098 13.4991 5.26518 13.4871 5.31741 13.5071C5.36964 13.5353 5.39375 13.5795 5.37768 13.6116Z" fill="white"/>
</g>
<defs>
<clipPath id="clip0">
<rect width="18" height="20.5714" fill="white" transform="translate(0.5 0.714355)"/>
</clipPath>
</defs>
</svg>
