<svg width="25" height="24" viewBox="0 0 25 24" fill="none" xmlns="http://www.w3.org/2000/svg">
<path d="M17.5 3H7.5C5.291 3 3.5 4.791 3.5 7V17C3.5 19.209 5.291 21 7.5 21H17.5C19.709 21 21.5 19.209 21.5 17V7C21.5 4.791 19.709 3 17.5 3ZM17.55 9.514C17.55 9.6 17.55 9.685 17.55 9.857C17.55 13.114 15.064 16.886 10.521 16.886C9.15 16.886 7.864 16.457 6.75 15.772C6.921 15.772 7.179 15.772 7.35 15.772C8.464 15.772 9.579 15.343 10.436 14.743C9.322 14.743 8.465 13.972 8.122 13.029C8.293 13.029 8.465 13.115 8.551 13.115C8.808 13.115 8.98 13.115 9.237 13.029C8.123 12.772 7.266 11.829 7.266 10.629C7.609 10.8 7.952 10.886 8.38 10.972C7.694 10.372 7.266 9.686 7.266 8.829C7.266 8.4 7.352 7.972 7.609 7.629C8.809 9.086 10.609 10.115 12.666 10.2C12.666 10.029 12.58 9.857 12.58 9.6C12.58 8.229 13.694 7.114 15.066 7.114C15.752 7.114 16.437 7.371 16.866 7.885C17.466 7.799 17.98 7.542 18.409 7.285C18.238 7.885 17.809 8.314 17.295 8.656C17.809 8.57 18.238 8.485 18.752 8.227C18.407 8.743 17.979 9.171 17.55 9.514Z" fill="white"/>
</svg>
